<svg xmlns="http://www.w3.org/2000/svg" width="400" height="400" fill="none" viewBox="0 0 400 400">
  <path fill="#565656" d="M400 200.393A200.001 200.001 0 0 1 3.157 235.392a200 200 0 0 1 384.18-105.426c.437 1.174.862 2.349 1.276 3.535v.011a194.08 194.08 0 0 1 4.877 15.929 201.368 201.368 0 0 1 6.51 50.952Z"/>
  <path fill="#FFF400" d="M176.623 64.546a67.554 67.554 0 0 0-59.308-2.426c-8.292 3.608-17.024 10.082-19.79 21.773 11.188-6.603 25.671 3.83 28.55 20.565l-.672.185c-1.521 11.592 1.874 24.212 8.445 31.4a22.083 22.083 0 0 1 10.601-15.721c4.828-3.175 10.17-5.48 13.856-10.936 4.369-6.468 5.478-15.921 7.214-24.545 1.735-8.623 5.028-17.892 11.104-20.295Z"/>
  <path fill="#FFF400" d="M113.998 163.189c-3.098 4.653-7.237 7.573-10.951 11.208a25.213 25.213 0 0 0-7.964 14.889c-.47 4.049.257 8.166.156 12.26-.1 4.094-1.465 8.702-4.25 9.72-4.396 1.589-7.752-6.577-12.271-7.148-3.59-.447-6.824 5.202-5.783 10.101 1.04 4.9 5.928 7.07 8.736 3.871 2.54 4.262.75 11.991-3.065 13.3-.403 2.684-.805 5.358-1.197 8.043-9.642-6.746-19.385-13.603-27.585-23.48a71.269 71.269 0 0 1-16.242-38.39c-1.062-11.354.515-24.341-4.698-33.077-4.172-6.991-11.331-8.535-17.774-8.099-1.175.079-2.36.213-3.535.358a199.131 199.131 0 0 1 14.418-32.998 14.125 14.125 0 0 0 3.614-2.249c5.995-5.09 8.658-15.392 13.523-22.517.314-.459.638-.906.973-1.343 4.978-6.499 11.645-9.843 18.088-12.953 14.262-6.924 28.938-13.938 43.995-12.976l-4.285.414c-5 14.005-10.003 28.01-15.011 42.015a1386.76 1386.76 0 0 1-2.304 6.454c-2.842 7.965-5.772 16.444-5.336 25.359.257 5.279 2.092 10.917 5.582 12.729 3.255 1.678 6.812-.38 9.955-2.416 1.331-.85 2.651-1.7 3.982-2.561 4.777-3.077 10.068-6.231 15.112-4.173 4.62 1.879 8.032 8.155 8.681 14.922a29.83 29.83 0 0 1-4.564 18.737Zm28.407 95.614-41.85-25.768.237-.61c-8.674 3.304-12.275 18.721-10.841 31.33 1.433 12.608 6.293 23.879 8.749 36.164a95.989 95.989 0 0 1-3.62 50.37 412.506 412.506 0 0 0 48.458-66.773 35.718 35.718 0 0 0 4.384-9.72 15.46 15.46 0 0 0-1.025-10.997 12.243 12.243 0 0 0-4.492-3.996Z"/>
  <path fill="#FFF400" d="M87.35 102.54a15.426 15.426 0 0 0-.707 11.218 12.436 12.436 0 0 0 6.947 6.434l7.708 3.82c2.564 1.272 5.329 2.555 7.943 1.509 3.152-1.261 5.339-6.204 4.773-10.793-.602-4.883-3.68-8.242-6.527-11.102L95.536 91.617l-2.245 2.75a29.983 29.983 0 0 0-5.941 8.173Zm271.331 52.203 10.403 2.449c-.604 11.712-6.41 22.551-14.195 26.478-3.244 1.633-6.857 2.237-9.542 5.291-2.427 2.774-3.658 7.091-4.788 11.219l-5.939 21.611c-2.126 7.763-4.855 16.388-10.381 19.184-4.743 2.405-10.168-.537-13.814-5.47-3.647-4.933-5.873-11.566-8.032-18.031.134 7.047-3.143 13.96-7.786 16.409-4.653 2.45-10.313.235-13.423-5.235-2.237-3.926-3.165-9.105-5.358-13.087-2.192-3.982-6.79-6.264-9.183-2.528-1.578 2.483-1.376 6.286-2.159 9.441a10.257 10.257 0 0 1-8.569 8.244 14.3 14.3 0 0 1-10.257-4.687 46.462 46.462 0 0 1-12.741-25.694 30.643 30.643 0 0 1 .358-14.05c1.376-4.351 4.698-7.707 7.998-6.879 2.17-4.587-2.114-10.672-5.974-10.135-3.87.537-6.901 4.687-10.078 7.875-3.166 3.188-7.595 5.504-10.784 2.338a4.372 4.372 0 0 1-4.44 4.642 15.84 15.84 0 0 1-5.783-3.065c-7.305-4.552-16.578-1.532-21.768 7.081 3.243-13.804 7.997-29.643 17.964-32.887 4.072-1.331 8.513-.235 12.361-2.539 6.812-4.083 8.188-19.508 2.304-25.873.749 6.018.604 13.043-2.573 17.159-3.176 4.117-9.843 1.432-9.441-4.653a4.07 4.07 0 0 1-3.207 3.559 4.076 4.076 0 0 1-4.377-1.948c-2.114-3.222-1.935-8.491-.436-12.339a29.038 29.038 0 0 1 6.522-9.261c5.313-5.694 10.705-11.455 16.857-15.035 6.163-3.579 13.278-4.787 19.452-1.23 3.256 1.879 6.119 5.011 9.441 6.667a7.008 7.008 0 0 0 5.284.867 6.99 6.99 0 0 0 4.459-3.306c2.472-4.34 1.309-10.783 2.226-16.208 1.645-9.586 11.231-14.072 16.544-7.74-3.971-1.019-8.076 3.68-8.568 9.373-.503 5.694 2.372 11.443 6.219 13.166 6.466 2.863 12.797-4.34 17.686-11.007 5.1-6.98 10.208-13.956 15.324-20.929a25.287 25.287 0 0 1 2.741-3.333 8.818 8.818 0 0 1 12.047-.246c5.168 4.217 7.595 12.864 11.835 18.814 6.152 8.647 15.358 10.75 23.926 12.428a10105.02 10105.02 0 0 1 19.173 3.747 198.443 198.443 0 0 1 11.13 24.576 67.357 67.357 0 0 0-28.658 24.777Zm20.647 134.589a200.512 200.512 0 0 1-16.667 27.887c-4.027-1.723-8.356 1.353-12.126 4.239-3.937 3.02-8.669 5.962-12.707 3.211-4.127-2.819-5.459-10.705-4.15-16.958a45.17 45.17 0 0 1 7.741-15.929c3.356-5.012 6.946-10.213 11.611-12.16 4.676-1.946 10.682.806 12.047 7.45l3.311-.112c-1.857-2.55-.883-7.83 1.611-8.758 2.875-1.085 5.369 2.863 7.07 6.354.76 1.577 1.532 3.165 2.259 4.776Z"/>
  <path fill="#FFF400" d="M252.517 242.084c-7.116.447-12.754-8.314-16.5-16.933-3.746-8.619-7.164-18.476-13.586-22.863-3.669-2.507-7.852-2.851-11.832-4.066a14.655 14.655 0 0 1-10.048-8.847l-4.515-1.823a67.784 67.784 0 0 0-17.14 12.221 38.315 38.315 0 0 0-10.214 22.329c-.862 9.036 2.322 19.113 8.273 22.507 4.701 2.682 10.176.992 14.938 3.447 5.95 3.068 9.483 11.98 10.82 20.78 1.338 8.799.999 17.944 1.955 26.843.957 8.899 3.594 18.159 9.051 22.72 6.828 5.707 16.849.964 19.912-9.424 1.503-5.096 1.451-10.846 2.575-16.136 1.98-9.315 7.321-16.226 11.557-23.868 4.237-7.641 7.572-18.019 4.754-26.887Zm-70.323-91.537a18.929 18.929 0 0 1 1.853 1.967 6.468 6.468 0 0 1-.113 6.675 6.21 6.21 0 0 0 4.447-2.26 28.602 28.602 0 0 0 3.409-4.803 5.224 5.224 0 0 0 1.006-4.19c-.336-.96-1.131-1.369-1.689-2.091a14.191 14.191 0 0 1-1.559-4.53 8.175 8.175 0 0 0-5.922-6.24l.357.068a3.383 3.383 0 0 0-1.585 3.604c.216 1.396 1.113 2.555 1.024 3.978-.128 2.048-2.174 3.008-2.301 5.056a3.91 3.91 0 0 0 1.073 2.766Zm-10.06-25.179a6.205 6.205 0 0 0 1.932-6.152c-.517-2.328-2.347-3.893-4.034-3.463a4.12 4.12 0 0 1-3.824 1.125c-1.043-.268-2.189-.96-3.094-.174a4.684 4.684 0 0 0-1.054 2.058l-1.005 3.085a1.945 1.945 0 0 0-.119 1.169.993.993 0 0 0 .76.604l6.029 1.777a5.194 5.194 0 0 0 4.409-.029Zm151.728 132.664-2.787-4.563a15.244 15.244 0 0 0-3.673-4.611 3.252 3.252 0 0 0-4.584.404l-.049.06.113.869a19.62 19.62 0 0 1 4.896 9.551c.211 1.554.138 3.163.324 4.725a5.494 5.494 0 0 0 1.721 3.853c1.463.977 3.18-.464 4.222-2.222a7.655 7.655 0 0 0 1.185-4.87 8.548 8.548 0 0 0-1.368-3.196Zm14.575 1.981c.177-1.424.061-2.87-.34-4.247a9.316 9.316 0 0 1 1.418-5.285 17.18 17.18 0 0 0 2.211-4.847 4.062 4.062 0 0 0-.106-2.373c-.308-.691-1.052-1.006-1.48-.459l.915.589a8.327 8.327 0 0 0-3.711.18 4.597 4.597 0 0 0-2.812 3.17 19.576 19.576 0 0 1-.738 3.289c-.545 1.121-1.601 1.494-2.264 2.478a5.922 5.922 0 0 0 .093 5.628 6.572 6.572 0 0 0 3.716 2.923c1.117.401 2.587.422 3.098-1.046Zm25.954 7.829a12.808 12.808 0 0 0 1.608 2.952c1.243 1.252 2.932.482 4.439.178a7.67 7.67 0 0 1 7.301 2.928 18.585 18.585 0 0 0-10.688-13.333 31.383 31.383 0 0 0-10.991-1.719l-.639.164c1.627 4.734 6.735 4.628 8.97 8.83Zm-113.862 17.306A34.983 34.983 0 0 0 248.32 290a42.274 42.274 0 0 0-1.601 8.303c-.2 1.6-.262 3.644.741 4.423a1.42 1.42 0 0 0 1.86-.252 7.353 7.353 0 0 0 1.349-2.005 46.175 46.175 0 0 0 4.552-10.804 18.802 18.802 0 0 0-.746-12.118l-3.946 7.601ZM212.545 82.105a4.48 4.48 0 0 0 4.831.942 15.955 15.955 0 0 0 4.545-3.002 10.69 10.69 0 0 0 2.756-3.006 6.103 6.103 0 0 0 .564-4.644 4.722 4.722 0 0 0-3.596-2.844l-6.692-1.985 1.613-1.454c-1.66-.891-3.497.763-4.535 2.81a15.138 15.138 0 0 0-1.376 4.238 10.883 10.883 0 0 0 1.89 8.945Zm39.384-13.222a3.686 3.686 0 0 0 5.023.409 5.611 5.611 0 0 0 2.222-4.002c.157-1.755-.71-3.705-1.949-3.856l.283-1.643c-2.387-.431-5.324-.518-6.604 2.381a6.81 6.81 0 0 0 1.025 6.71Z"/>
</svg>
