<svg xmlns="http://www.w3.org/2000/svg" width="242" height="224" fill="none" viewBox="0 0 242 224">
  <g clip-path="url(#a)">
    <path fill="#FFB8B8" d="m67 219.062 4.322-.576.165-19.827-6.379.849L67 219.062Z"/>
    <path fill="#2F2E41" d="m80.111 222.084-13.581 1.808-.596-6.156 8.334-1.109c1.392-.186 2.79.285 3.885 1.309 1.096 1.023 1.8 2.515 1.958 4.148Z"/>
    <path fill="#FFB8B8" d="M22.556 218.745h4.35l2.069-19.68-6.42.001.001 19.679Z"/>
    <path fill="#2F2E41" d="M35.293 223.482H21.624v-6.195h8.388c1.4 0 2.744.652 3.734 1.814.99 1.162 1.547 2.738 1.547 4.381ZM53.76 130.74l2.484 9.476 13.481 34.221 3.548 32.461-8.16.416-4.966-29.964-17.029-21.64-14.9 56.598-6.74-.833s5.676-73.244 13.48-80.735c0 0 12.772-7.075 18.803 0Z"/>
    <path fill="#FFB8B8" d="M42.745 89.853c4.813 0 8.714-4.576 8.714-10.221 0-5.645-3.901-10.221-8.714-10.221-4.812 0-8.713 4.576-8.713 10.221 0 5.645 3.901 10.221 8.713 10.221Z"/>
    <path fill="#CCC" d="M54.648 132.613s1.064-42.45-13.835-39.536c-14.9 2.913-8.692 43.905-8.692 43.905s3.193 7.491 10.998-.832c7.804-8.323 11.53-3.537 11.53-3.537Z"/>
    <path fill="#000" d="m34.072 110.972 3.506 15.766 5.342 6.266-7.429-2.888-1.419-19.144Z" opacity=".2"/>
    <path fill="#FFB8B8" d="M54.758 150.565a3.561 3.561 0 0 1-1.304-.973 4.327 4.327 0 0 1-.832-1.529 4.86 4.86 0 0 1-.201-1.798c.045-.61.204-1.2.465-1.73L44.6 133.281l6.532-.997L58 143.124c.73.573 1.254 1.441 1.474 2.438a4.867 4.867 0 0 1-.277 2.971c-.4.918-1.073 1.631-1.89 2.005a3.094 3.094 0 0 1-2.549.027Z"/>
    <path fill="#CCC" d="m44.669 101.723.933 21.526 10.997 16.646-4.611 4.162-14.9-17.479s-5.322-21.224-1.42-27.467c1.464-2.34 3.077-2.984 4.522-2.874 1.189.116 2.3.738 3.125 1.748.825 1.01 1.306 2.34 1.354 3.738Z"/>
    <path fill="#2F2E41" d="M41.709 90.372a.43.43 0 0 0 .094-.16.49.49 0 0 0-.028-.376.397.397 0 0 0-.117-.137c-.773-.562-1.404-1.358-1.825-2.305a6.816 6.816 0 0 1-.566-3.075 6.66 6.66 0 0 1 .85-2.983c.507-.887 1.208-1.597 2.03-2.056 2.561-1.433 6.032-.319 7.926-3.072a5.607 5.607 0 0 0 .799-1.992 6.038 6.038 0 0 0 .018-2.202c-.409-2.6-2.075-4.531-3.941-5.855-2.293-1.626-4.928-2.466-7.607-2.425-2.679.041-5.294.961-7.55 2.656-2.256 1.696-4.062 4.098-5.213 6.936-1.152 2.837-1.603 5.997-1.302 9.12.24 2.502.899 5.309-.37 7.34-1.116 1.79-3.224 2.125-5.075 2.569-3.97.953-7.802 3.152-10.496 6.704-2.695 3.551-4.133 8.534-3.32 13.193.812 4.658 4.072 8.751 8.078 9.473 3.26.588 6.628-1.036 9.022-3.698 2.395-2.663 3.908-6.258 4.863-9.962 1.133-4.397 1.58-9.135 3.626-13.052 2.002-3.833 6.316-6.58 9.697-4.584.065.04.139.056.211.045a.34.34 0 0 0 .196-.102Z"/>
    <path fill="#3F3D56" d="M109.265 224H.355a.33.33 0 0 1-.251-.122.455.455 0 0 1-.104-.294.45.45 0 0 1 .104-.294.33.33 0 0 1 .25-.122h108.911a.33.33 0 0 1 .251.122.45.45 0 0 1 .104.294c0 .11-.037.216-.104.294a.33.33 0 0 1-.251.122ZM219.286 82.309c-.02 11.788-3.798 23.141-10.592 31.827-6.793 8.687-16.111 14.077-26.121 15.113-10.01 1.036-19.989-2.359-27.973-9.516-7.985-7.157-13.399-17.56-15.177-29.162-1.778-11.602.207-23.565 5.567-33.537 5.359-9.972 13.705-17.231 23.395-20.35 9.691-3.12 20.026-1.874 28.974 3.492 8.947 5.366 15.86 14.464 19.378 25.506.088.278.174.555.257.835v.002c.372 1.23.699 2.484.982 3.76a55.368 55.368 0 0 1 1.31 12.03Z"/>
    <path fill="#FFF400" d="M174.332 50.238c-1.821-1.155-3.843-1.807-5.911-1.907-2.068-.099-4.129.357-6.024 1.334-1.669.852-3.426 2.38-3.983 5.14 2.252-1.558 5.166.904 5.746 4.855l-.136.044c-.306 2.737.377 5.716 1.7 7.413a5.766 5.766 0 0 1 .71-2.138 4.837 4.837 0 0 1 1.423-1.574c.972-.749 2.047-1.293 2.789-2.581.879-1.527 1.102-3.759 1.451-5.795.35-2.036 1.012-4.224 2.235-4.791Z"/>
    <path fill="#FFF400" d="M161.729 73.525c-.623 1.099-1.456 1.788-2.204 2.646-.862.921-1.428 2.162-1.602 3.515-.095.956.051 1.928.031 2.895-.02.966-.295 2.054-.855 2.294-.885.375-1.56-1.552-2.47-1.687-.722-.106-1.373 1.228-1.164 2.385.21 1.156 1.193 1.669 1.758.913.511 1.007.151 2.831-.616 3.14-.081.634-.162 1.265-.241 1.899-1.941-1.593-3.901-3.211-5.551-5.543-1.836-2.572-2.974-5.728-3.269-9.063-.214-2.68.103-5.746-.946-7.809-.839-1.65-2.28-2.015-3.577-1.912-.236.019-.475.05-.711.085a51.556 51.556 0 0 1 2.902-7.79c.264-.134.509-.313.727-.532 1.206-1.201 1.742-3.633 2.721-5.315.063-.109.129-.214.196-.317 1.002-1.535 2.344-2.324 3.64-3.058 2.87-1.635 5.824-3.29 8.854-3.064l-.862.098a19020.488 19020.488 0 0 1-3.485 11.443c-.572 1.88-1.162 3.882-1.074 5.986.052 1.247.421 2.578 1.124 3.006.655.396 1.371-.09 2.003-.571.268-.2.534-.401.801-.605.962-.726 2.026-1.47 3.042-.985.929.444 1.616 1.925 1.747 3.523.119 1.553-.204 3.109-.919 4.423Zm5.717 22.573-8.422-6.083.047-.144c-1.745.78-2.47 4.42-2.181 7.396.288 2.977 1.266 5.637 1.76 8.538a26.392 26.392 0 0 1-.728 11.891 98.359 98.359 0 0 0 9.752-15.764c.39-.709.688-1.482.882-2.294a4.229 4.229 0 0 0-.206-2.597 2.651 2.651 0 0 0-.904-.943Z"/>
    <path fill="#FFF400" d="M156.366 59.208a4.231 4.231 0 0 0-.142 2.648c.277.703.78 1.249 1.398 1.519l1.551.902c.516.3 1.073.603 1.599.356.634-.298 1.074-1.465.96-2.548-.121-1.153-.74-1.946-1.313-2.621l-2.405-2.835-.452.65a7.152 7.152 0 0 0-1.196 1.928Zm54.604 12.323 2.094.579c-.122 2.765-1.29 5.324-2.857 6.25-.653.386-1.38.529-1.92 1.25-.488.655-.736 1.674-.963 2.648l-1.196 5.102c-.427 1.833-.977 3.87-2.089 4.53-.954.567-2.046-.127-2.78-1.292s-1.182-2.73-1.616-4.257c.027 1.664-.633 3.296-1.567 3.874-.936.578-2.076.055-2.701-1.236-.451-.927-.637-2.15-1.079-3.09-.441-.94-1.366-1.478-1.848-.596-.317.586-.277 1.484-.434 2.228-.08.495-.288.948-.597 1.297a1.963 1.963 0 0 1-1.128.65 2.53 2.53 0 0 1-1.129-.305 2.948 2.948 0 0 1-.935-.802c-1.378-1.654-2.276-3.777-2.564-6.066a8.455 8.455 0 0 1 .072-3.317c.277-1.027.945-1.819 1.61-1.623.436-1.083-.426-2.52-1.203-2.393-.778.127-1.388 1.106-2.028 1.859-.637.753-1.528 1.3-2.17.552.014.273-.064.542-.219.747a.84.84 0 0 1-.675.349 3.065 3.065 0 0 1-1.163-.724c-1.47-1.075-3.337-.362-4.381 1.672.653-3.259 1.609-6.998 3.615-7.764.82-.314 1.713-.056 2.488-.6 1.371-.963 1.648-4.605.463-6.108.151 1.421.122 3.08-.517 4.051-.64.972-1.981.338-1.9-1.098a1.046 1.046 0 0 1-.207.543.8.8 0 0 1-.439.297.71.71 0 0 1-.504-.062.886.886 0 0 1-.377-.398c-.425-.76-.389-2.004-.087-2.913a6.98 6.98 0 0 1 1.312-2.186c1.069-1.344 2.154-2.704 3.393-3.55 1.24-.844 2.672-1.13 3.914-.29.655.444 1.232 1.183 1.9 1.574.157.114.332.191.515.226.182.035.369.028.549-.021.18-.05.35-.14.5-.267a1.59 1.59 0 0 0 .375-.47l.022-.044c.497-1.024.263-2.545.448-3.826.331-2.263 2.26-3.322 3.329-1.828-.799-.24-1.625.87-1.724 2.213-.101 1.344.477 2.702 1.252 3.109 1.301.676 2.575-1.025 3.559-2.599a2269.25 2269.25 0 0 1 3.084-4.94c.164-.281.349-.544.551-.788.323-.368.753-.58 1.203-.59.45-.011.887.18 1.222.532 1.04.996 1.528 3.037 2.381 4.442 1.238 2.041 3.091 2.538 4.816 2.934 1.285.293 2.571.588 3.858.884a51.238 51.238 0 0 1 2.24 5.802c-2.36 1.263-4.362 3.293-5.768 5.85Zm4.156 31.774a49.707 49.707 0 0 1-3.355 6.584c-.81-.407-1.681.319-2.44 1.001-.792.713-1.744 1.407-2.557.758-.831-.666-1.099-2.528-.835-4.004a11.49 11.49 0 0 1 1.558-3.76c.675-1.183 1.397-2.411 2.336-2.871.941-.459 2.15.19 2.425 1.759l.666-.026c-.374-.603-.178-1.849.324-2.068.579-.256 1.081.676 1.423 1.5.153.372.308.747.455 1.127Z"/>
    <path fill="#FFF400" d="M189.606 92.15c-1.433.107-2.567-1.962-3.321-3.997-.754-2.034-1.442-4.361-2.734-5.397-.739-.592-1.58-.673-2.381-.96a2.834 2.834 0 0 1-1.227-.757 3.517 3.517 0 0 1-.795-1.331l-.909-.43a13.898 13.898 0 0 0-3.449 2.884c-1.16 1.445-1.882 3.298-2.056 5.272-.173 2.133.467 4.512 1.665 5.313.946.633 2.048.234 3.006.814 1.198.724 1.909 2.828 2.178 4.905.269 2.078.201 4.237.393 6.338.193 2.101.723 4.287 1.822 5.363 1.374 1.348 3.39.228 4.007-2.224.302-1.203.292-2.561.518-3.81.398-2.199 1.473-3.83 2.326-5.634.852-1.804 1.524-4.254.957-6.348Zm-14.153-21.609c.134.144.259.3.373.465.119.24.18.513.176.791a1.72 1.72 0 0 1-.199.784 1.11 1.11 0 0 0 .496-.156 1.3 1.3 0 0 0 .399-.377c.262-.35.492-.73.687-1.134a1.33 1.33 0 0 0 .191-.47c.035-.17.039-.347.011-.52-.068-.226-.228-.322-.34-.493a3.766 3.766 0 0 1-.314-1.07 2.051 2.051 0 0 0-.417-.935 1.615 1.615 0 0 0-.774-.538l.071.017a.77.77 0 0 0-.275.365.92.92 0 0 0-.044.485c.044.33.224.604.206.94-.025.483-.437.71-.463 1.193-.004.243.074.477.216.653Zm-2.454-8.213.006-.002c.045-.047.086-.098.123-.152l-.129.154Z"/>
    <path fill="#FFF400" d="M173.429 64.597a1.51 1.51 0 0 0 .368-.663 1.73 1.73 0 0 0 .021-.79c-.104-.55-.473-.919-.812-.817a.817.817 0 0 1-.356.25.71.71 0 0 1-.414.016c-.21-.064-.44-.227-.623-.042a1.187 1.187 0 0 0-.212.486l-.202.728a.538.538 0 0 0-.024.276.23.23 0 0 0 .061.095.185.185 0 0 0 .092.048l1.213.42a.92.92 0 0 0 .445.112.922.922 0 0 0 .443-.12Zm30.534 31.319-.561-1.077a3.544 3.544 0 0 0-.739-1.089.593.593 0 0 0-.478-.176.629.629 0 0 0-.444.272l-.01.014.023.205c.5.63.842 1.41.985 2.255.042.367.028.747.065 1.115.004.171.037.34.096.495.059.156.145.297.25.415.295.23.641-.11.85-.525.187-.34.271-.746.239-1.15a2.217 2.217 0 0 0-.276-.754Zm2.933.467a2.887 2.887 0 0 0-.068-1.002c-.013-.44.086-.875.286-1.248a4.4 4.4 0 0 0 .444-1.144c.041-.185.034-.38-.021-.56-.062-.163-.212-.238-.298-.109l.184.14a1.435 1.435 0 0 0-.746.042.931.931 0 0 0-.361.293c-.099.13-.169.286-.205.455a5.32 5.32 0 0 1-.149.777c-.11.264-.322.352-.456.585a1.589 1.589 0 0 0-.133.667c.003.232.055.46.152.662.168.33.434.576.748.69.225.094.521.099.623-.248Zm5.224 1.849c.081.248.19.482.323.697.25.295.59.114.893.042.276-.051.558-.014.816.108a1.6 1.6 0 0 1 .654.583 4.769 4.769 0 0 0-.749-1.88 3.88 3.88 0 0 0-1.402-1.268 5.477 5.477 0 0 0-2.212-.405l-.129.038c.328 1.118 1.356 1.093 1.806 2.085Zm-22.122 2.286.001.005.038-.084-.039.079Zm-.793 1.799a9.15 9.15 0 0 0-.444 1.146 11.5 11.5 0 0 0-.322 1.96c-.041.378-.053.86.149 1.044a.25.25 0 0 0 .196.053.278.278 0 0 0 .178-.112c.112-.139.204-.299.271-.473.397-.802.705-1.659.917-2.551a5.165 5.165 0 0 0-.15-2.861l-.795 1.794Zm-7.644-47.934a.868.868 0 0 0 .458.282.77.77 0 0 0 .514-.06c.338-.172.647-.412.915-.708.222-.193.41-.434.555-.71a1.643 1.643 0 0 0 .113-1.096 1.12 1.12 0 0 0-.287-.446.89.89 0 0 0-.436-.226l-1.347-.468.325-.343c-.335-.21-.704.18-.913.663a4.029 4.029 0 0 0-.277 1c-.071.364-.074.74-.008 1.105.065.365.198.709.388 1.007Zm7.926-3.121a.71.71 0 0 0 .489.282.67.67 0 0 0 .522-.186c.127-.112.232-.253.309-.416.077-.163.124-.343.138-.529.032-.414-.143-.874-.392-.91l.057-.388c-.48-.102-1.072-.122-1.329.562a1.853 1.853 0 0 0-.077.825c.036.278.134.54.283.76Z"/>
    <path fill="#E6E6E6" d="M156.828 79.163c1.655 0 2.997-2.11 2.997-4.714 0-2.603-1.342-4.714-2.997-4.714-1.655 0-2.996 2.11-2.996 4.714 0 2.604 1.341 4.714 2.996 4.714Zm54.764 58.373c1.431-.447 2.375-1.756 2.11-2.923-.265-1.168-1.639-1.752-3.07-1.305-1.431.447-2.376 1.756-2.111 2.923.265 1.168 1.64 1.752 3.071 1.305Zm-17.523.38c1.431-.447 2.376-1.756 2.11-2.923-.265-1.168-1.639-1.752-3.07-1.305-1.431.447-2.376 1.756-2.111 2.923.266 1.168 1.64 1.752 3.071 1.305Zm20.636-17.483c1.43-.447 2.375-1.756 2.11-2.923-.265-1.168-1.64-1.752-3.07-1.305-1.431.447-2.376 1.756-2.111 2.923.265 1.168 1.64 1.752 3.071 1.305Zm5.168-7.27c.646-.094 1.077-1.054.961-2.143-.115-1.089-.732-1.896-1.378-1.802-.646.094-1.076 1.053-.961 2.142.115 1.09.732 1.897 1.378 1.803Zm1.309-12.904c.646-.094 1.076-1.053.961-2.142-.115-1.09-.732-1.896-1.378-1.802-.646.094-1.076 1.053-.961 2.142.115 1.09.732 1.896 1.378 1.802Zm-17.664 24.805c.646-.094 1.076-1.053.961-2.142-.115-1.09-.732-1.897-1.378-1.803-.646.094-1.077 1.054-.961 2.143.115 1.089.732 1.896 1.378 1.802Zm8.859 3.762c.646-.094 1.076-1.053.961-2.142-.115-1.09-.732-1.897-1.378-1.803-.646.094-1.076 1.053-.961 2.143.115 1.089.732 1.896 1.378 1.802Zm-10.757 10.655c.646-.094 1.076-1.053.961-2.143-.115-1.089-.732-1.896-1.378-1.802-.646.094-1.076 1.053-.961 2.143.115 1.089.732 1.896 1.378 1.802Zm-77.132-19.208c1.431-.447 2.376-1.756 2.111-2.923-.265-1.168-1.64-1.752-3.071-1.305-1.43.447-2.375 1.756-2.11 2.923.265 1.168 1.64 1.752 3.07 1.305Zm-17.524.381c1.431-.447 2.376-1.756 2.111-2.924-.265-1.167-1.64-1.751-3.07-1.304-1.431.447-2.376 1.755-2.111 2.923.265 1.168 1.64 1.752 3.07 1.305Zm20.638-17.485c1.431-.447 2.376-1.756 2.111-2.923-.265-1.168-1.64-1.752-3.071-1.305-1.43.447-2.375 1.756-2.11 2.923.265 1.168 1.639 1.752 3.07 1.305Zm5.168-7.269c.646-.094 1.076-1.054.961-2.143-.115-1.09-.732-1.896-1.378-1.802-.646.094-1.076 1.053-.961 2.142.115 1.09.732 1.897 1.378 1.803Zm1.308-12.904c.646-.094 1.077-1.053.961-2.142-.115-1.09-.732-1.897-1.378-1.803-.646.094-1.076 1.054-.961 2.143.115 1.09.732 1.896 1.378 1.802Zm-17.664 24.805c.646-.094 1.077-1.053.961-2.142-.115-1.09-.732-1.897-1.378-1.803-.646.094-1.076 1.054-.961 2.143.115 1.089.732 1.896 1.378 1.802Zm8.86 3.762c.646-.094 1.076-1.053.961-2.143-.115-1.089-.732-1.896-1.378-1.802-.646.094-1.077 1.053-.962 2.143.116 1.089.733 1.896 1.379 1.802Zm-10.757 10.655c.646-.094 1.076-1.053.961-2.143-.115-1.089-.732-1.896-1.378-1.802-.646.094-1.076 1.053-.961 2.142.115 1.09.732 1.897 1.378 1.803Zm116.436-80.989c1.431-.447 2.376-1.756 2.111-2.923-.265-1.168-1.64-1.752-3.071-1.305-1.43.447-2.375 1.756-2.11 2.923.265 1.168 1.639 1.752 3.07 1.305Zm-17.524.381c1.431-.447 2.376-1.756 2.111-2.924-.265-1.167-1.64-1.751-3.071-1.304-1.43.447-2.375 1.756-2.11 2.923.265 1.168 1.64 1.752 3.07 1.305Zm20.638-17.485c1.431-.447 2.376-1.756 2.111-2.924-.266-1.167-1.64-1.751-3.071-1.304-1.431.447-2.376 1.756-2.11 2.923.265 1.168 1.639 1.752 3.07 1.305Zm5.168-7.27c.646-.093 1.076-1.053.961-2.142-.115-1.09-.732-1.896-1.378-1.802-.646.094-1.077 1.053-.962 2.142.116 1.09.733 1.896 1.379 1.802Zm1.308-12.903c.646-.094 1.076-1.053.961-2.142-.115-1.09-.732-1.896-1.378-1.803-.646.094-1.076 1.054-.961 2.143.115 1.09.732 1.896 1.378 1.802Zm-17.664 24.805c.646-.094 1.076-1.053.961-2.142-.115-1.09-.732-1.897-1.378-1.803-.646.094-1.076 1.053-.961 2.143.115 1.09.732 1.896 1.378 1.802Zm8.859 3.762c.646-.094 1.077-1.053.962-2.143-.116-1.089-.733-1.896-1.379-1.802-.645.094-1.076 1.053-.961 2.143.115 1.089.732 1.896 1.378 1.802Zm-10.757 10.655c.646-.094 1.076-1.053.961-2.143-.115-1.09-.732-1.896-1.378-1.802-.646.094-1.076 1.053-.961 2.142.115 1.09.732 1.897 1.378 1.803Z"/>
    <path fill="#3F3D56" d="M119.223 123.197c-2.867 0-4.731-.835-5.556-2.497-1.627-3.276 1.098-9.024 8.098-17.085l.588.702c-6.502 7.488-9.33 13.131-7.961 15.888.867 1.743 3.444 2.369 7.457 1.806 3.983-.557 9.262-2.22 15.69-4.941 13.233-5.603 29.835-15.053 46.747-26.61 16.912-11.556 32.109-23.836 42.792-34.576a128.838 128.838 0 0 0 5.534-5.899 62.32 62.32 0 0 0 5.869-7.674c2.397-3.816 3.205-6.755 2.339-8.5-1.446-2.913-7.523-2.639-17.112.773l-.244-.943c10.288-3.66 16.371-3.769 18.082-.325 1.062 2.14.259 5.363-2.388 9.58a63.444 63.444 0 0 1-5.96 7.795 129.63 129.63 0 0 1-5.574 5.94c-10.72 10.778-25.961 23.094-42.915 34.68-16.955 11.586-33.606 21.063-46.885 26.685-6.488 2.747-11.829 4.427-15.876 4.993-.904.132-1.814.202-2.725.208Z"/>
  </g>
  <defs>
    <clipPath id="a">
      <path fill="#fff" d="M0 0h242v224H0z"/>
    </clipPath>
  </defs>
</svg>
